<svg width="24" height="24" viewBox="0 0 24 24" fill="none" xmlns="http://www.w3.org/2000/svg">
<path d="M3.47609 3.47609C2 4.95228 2 7.32837 2 12.08V12.92C2 17.6717 2 20.0478 3.47609 21.5239C4.95228 23 7.32837 23 12.08 23H12.92C17.6717 23 20.0478 23 21.5239 21.5239C23 20.0478 23 17.6717 23 12.92V12.08C23 7.32833 23 4.95223 21.5239 3.47609C20.0478 2 17.6717 2 12.92 2H12.08C7.32833 2 4.95223 2 3.47609 3.47609ZM5.54375 8.38756H7.94127C8.02002 12.395 9.78748 14.0925 11.1875 14.4425V8.38752H13.445V11.8438C14.8275 11.695 16.28 10.12 16.77 8.38752H19.0275C18.8428 9.28602 18.4747 10.1368 17.9463 10.8865C17.4178 11.6363 16.7403 12.269 15.9562 12.745C16.8317 13.1796 17.605 13.7952 18.2249 14.5508C18.8449 15.3065 19.2974 16.1852 19.5525 17.1288H17.0675C16.8385 16.3092 16.3726 15.5755 15.7281 15.0197C15.0836 14.464 14.2894 14.111 13.445 14.005V17.1288H13.1737C8.38752 17.1288 5.65752 13.8475 5.54375 8.38752V8.38756Z" fill="#d9cfff"/>
</svg>
