<svg width="24" height="24" viewBox="0 0 24 24" fill="none" xmlns="http://www.w3.org/2000/svg">
<path d="M21.0312 2H3.96875C2.88594 2 2 2.88594 2 3.96875V21.0312C2 22.1141 2.88594 23 3.96875 23H21.0312C22.1141 23 23 22.1141 23 21.0312V3.96875C23 2.88594 22.1141 2 21.0312 2ZM5.60938 16.4375H4.95312L4.625 14.4688L4.95312 12.5H5.60938L5.9375 14.4688L5.60938 16.4375ZM8.23438 16.4375H7.57812L7.25 13.8125L7.57812 11.1875H8.23438L8.5625 13.8125L8.23438 16.4375ZM10.8594 16.4375H10.2031L9.875 12.5L10.2031 8.5625H10.8594L11.1875 12.5L10.8594 16.4375ZM18.9234 16.4375L12.7428 16.4336C12.6778 16.426 12.6176 16.3954 12.5733 16.3472C12.5289 16.299 12.5034 16.2365 12.5013 16.1711V9.09144C12.5013 8.96019 12.5459 8.89456 12.7139 8.82894C13.2832 8.6077 13.8961 8.52191 14.5042 8.57836C15.1123 8.63481 15.699 8.83194 16.2178 9.15417C16.7366 9.4764 17.1733 9.9149 17.4935 10.435C17.8136 10.9551 18.0084 11.5425 18.0624 12.1509C18.4016 12.0093 18.7705 11.9538 19.1363 11.989C19.5022 12.0243 19.8536 12.1493 20.1596 12.3531C20.4655 12.5568 20.7164 12.8329 20.8899 13.1569C21.0635 13.4808 21.1544 13.8426 21.1546 14.2102C21.1546 15.4413 20.1545 16.4375 18.9234 16.4375Z" fill="#5F4E9B"/>
</svg>
